<svg xmlns="http://www.w3.org/2000/svg" width="214.57" height="30.944" viewBox="0 0 214.57 30.944">
  <g id="Group_18207" data-name="Group 18207" transform="translate(-300 -7003.718)">
    <g id="md-star-half" transform="translate(482.014 7003.718)">
      <path id="Path_4197" data-name="Path 4197" d="M37.619,17.8,25.912,16.793,21.341,6,16.768,16.793,5.063,17.8l8.88,7.7L11.28,36.944l10.06-6.069L31.4,36.944,28.739,25.5ZM22.673,28.667l-1.332-.8V12.611l2.2,5.188.606,1.43,1.548.133,5.629.483-4.27,3.7-1.175,1.018.352,1.514,1.279,5.5Z" transform="translate(-5.063 -6)" fill="#ffb300"/>
    </g>
    <g id="md-star-half-2" data-name="md-star-half" transform="translate(436.51 7003.718)">
      <path id="Path_4197-2" data-name="Path 4197" d="M37.619,17.8,25.912,16.793,21.341,6,16.768,16.793,5.063,17.8l8.88,7.7L11.28,36.944l10.06-6.069L31.4,36.944,28.739,25.5Z" transform="translate(-5.063 -6)" fill="#ffb300"/>
    </g>
    <g id="md-star-half-3" data-name="md-star-half" transform="translate(391.007 7003.718)">
      <path id="Path_4197-3" data-name="Path 4197" d="M37.619,17.8,25.912,16.793,21.341,6,16.768,16.793,5.063,17.8l8.88,7.7L11.28,36.944l10.06-6.069L31.4,36.944,28.739,25.5Z" transform="translate(-5.063 -6)" fill="#ffb300"/>
    </g>
    <g id="md-star-half-4" data-name="md-star-half" transform="translate(345.503 7003.718)">
      <path id="Path_4197-4" data-name="Path 4197" d="M37.619,17.8,25.912,16.793,21.341,6,16.768,16.793,5.063,17.8l8.88,7.7L11.28,36.944l10.06-6.069L31.4,36.944,28.739,25.5Z" transform="translate(-5.063 -6)" fill="#ffb300"/>
    </g>
    <g id="md-star-half-5" data-name="md-star-half" transform="translate(300 7003.718)">
      <path id="Path_4197-5" data-name="Path 4197" d="M37.619,17.8,25.912,16.793,21.341,6,16.768,16.793,5.063,17.8l8.88,7.7L11.28,36.944l10.06-6.069L31.4,36.944,28.739,25.5Z" transform="translate(-5.063 -6)" fill="#ffb300"/>
    </g>
  </g>
</svg>
